<svg width="192" height="44" fill="none" xmlns="http://www.w3.org/2000/svg"><path d="M2.543 2.667V21H0V1h4.238l11.855 17.5L27.947 1H32v20h-2.543V2.94L17.377 21h-2.57L2.544 2.667Z" fill="#F70000"/><path d="M58.11 16.417H40.89L38.173 21H35L47.688 1h3.624L64 21h-3.172l-2.719-4.583Zm-1.36-2.084L49.5 2.667l-7.25 11.666h14.5ZM89.59 21h-2.465v-3.75c0-.608-.013-1.128-.038-1.563-.018-.442-.09-.82-.219-1.132a1.626 1.626 0 0 0-.577-.755c-.266-.192-.642-.34-1.13-.443-.487-.104-1.108-.174-1.86-.209a48.724 48.724 0 0 0-2.76-.065H69.464V21H67V1h13.951c1.506 0 2.773.056 3.8.17 1.035.103 1.886.264 2.554.481.676.217 1.193.486 1.553.807.368.322.633.7.795 1.133.172.434.27.92.296 1.458.034.539.051 1.133.051 1.784 0 .834-.06 1.567-.18 2.2-.11.626-.303 1.16-.577 1.602a3.157 3.157 0 0 1-1.091 1.068c-.454.26-1.023.443-1.707.547.684.104 1.232.287 1.643.547.41.26.727.599.95 1.015.222.417.367.912.436 1.485.077.573.115 1.224.115 1.953V21ZM69.463 11H80.95c1.096 0 2.016-.017 2.76-.052.753-.043 1.373-.117 1.861-.221.488-.105.864-.252 1.13-.443a1.63 1.63 0 0 0 .577-.755c.128-.313.201-.686.218-1.12.026-.443.039-.968.039-1.576 0-.564-.013-1.05-.039-1.458-.017-.408-.09-.75-.218-1.029a1.44 1.44 0 0 0-.578-.664c-.265-.165-.641-.29-1.129-.377-.488-.096-1.108-.157-1.861-.183a81.118 81.118 0 0 0-2.76-.039H69.465V11ZM97 1h3v20h-3V1Z" fill="#000D4C"/><path d="M118.139 9.656c1.341 0 2.491.06 3.45.178.959.119 1.766.297 2.419.535.662.229 1.188.517 1.579.864.39.348.692.745.904 1.193.212.44.348.933.407 1.482.068.548.102 1.143.102 1.783 0 .64-.055 1.243-.166 1.81a4.677 4.677 0 0 1-.56 1.536 4.4 4.4 0 0 1-1.107 1.248c-.467.366-1.061.677-1.783.933-.721.256-1.591.448-2.61.576-1.01.137-2.194.206-3.552.206h-3.259c-1.222 0-2.292-.05-3.208-.15-.917-.102-1.706-.252-2.368-.454-.662-.21-1.21-.47-1.643-.781a4.052 4.052 0 0 1-1.044-1.111 4.437 4.437 0 0 1-.534-1.454 9.929 9.929 0 0 1-.153-1.81h2.444c0 .822.111 1.467.331 1.933.221.467.586.819 1.095 1.056.509.229 1.176.375 1.999.44.832.054 1.859.082 3.081.082h3.259c1.426 0 2.61-.074 3.552-.22.942-.146 1.694-.38 2.254-.7.56-.32.955-.735 1.184-1.247.229-.522.344-1.153.344-1.893s-.081-1.358-.242-1.852c-.153-.494-.463-.887-.93-1.18-.458-.292-1.107-.498-1.948-.617-.84-.128-1.939-.192-3.297-.192h-3.361c-1.494 0-2.776-.06-3.845-.178-1.061-.119-1.952-.288-2.674-.507-.721-.229-1.298-.508-1.731-.837a3.636 3.636 0 0 1-.993-1.152 4.313 4.313 0 0 1-.433-1.427A13.51 13.51 0 0 1 105 6.035c0-.64.051-1.234.153-1.783.11-.549.31-1.043.598-1.481a4.292 4.292 0 0 1 1.184-1.194c.501-.347 1.142-.635 1.923-.864.789-.238 1.735-.416 2.839-.535C112.8.06 114.099 0 115.593 0h2.444c1.222 0 2.292.05 3.208.15.917.092 1.706.243 2.368.453.662.202 1.21.458 1.643.769a3.47 3.47 0 0 1 1.044 1.097c.263.42.445.9.547 1.44.102.54.153 1.138.153 1.797h-2.444c0-.823-.111-1.468-.331-1.934-.221-.467-.586-.814-1.095-1.043-.51-.237-1.18-.384-2.012-.438a41.255 41.255 0 0 0-3.081-.096h-2.444c-1.63 0-2.971.064-4.024.192-1.052.118-1.884.324-2.495.617-.611.292-1.035.686-1.273 1.18-.238.493-.357 1.11-.357 1.85 0 .458.03.865.09 1.222.059.356.178.672.356.946.187.265.446.49.777.672.331.183.768.334 1.311.453.543.119 1.205.205 1.986.26a49.26 49.26 0 0 0 2.814.069h3.361Z" fill="#F70000"/><path d="M153.429 1H156v20h-2.571v-9.167h-18.858V21H132V1h2.571v8.75h18.858V1Zm27.883 15.417h-16.624L162.062 21H159l12.25-20h3.5L187 21h-3.062l-2.626-4.583ZM180 14.333l-7-11.666-7 11.666h14Z" fill="#000D4C"/><path d="M192 21h-3v-3h3v3Z" fill="#F70000"/><path d="M113.192 32.256h1.584l1.888 6.368h.096l1.824-6.368h1.616l1.888 6.368h.096l1.824-6.368h1.472L122.936 40h-1.712l-1.872-6.256-1.84 6.256H115.8l-2.608-7.744Zm16.992 7.904c-2.368 0-3.552-.79-3.552-2.368v-3.056c0-.939.267-1.61.8-2.016.544-.416 1.419-.624 2.624-.624 1.141 0 1.963.197 2.464.592.512.395.768 1.077.768 2.048v1.712h-5.2v1.168c0 .533.187.917.56 1.152.373.235.949.352 1.728.352.736 0 1.605-.128 2.608-.384v1.104c-.981.213-1.915.32-2.8.32Zm1.664-4.656v-1.216c0-.47-.144-.79-.432-.96-.277-.181-.757-.272-1.44-.272-.661 0-1.141.09-1.44.272-.299.17-.448.49-.448.96v1.216h3.76Zm7.09 4.656c-.576 0-1.04-.032-1.392-.096a3.795 3.795 0 0 1-1.024-.32c-.693-.33-1.04-1.088-1.04-2.272V28.8h1.44v3.232c-.01.277-.016.587-.016.928.054-.245.278-.453.672-.624.406-.16.992-.24 1.76-.24 2.134 0 3.2.73 3.2 2.192v3.184c0 .459-.069.859-.208 1.2-.128.341-.298.608-.512.8-.192.181-.458.325-.8.432-.33.107-.661.176-.992.208-.298.032-.661.048-1.088.048Zm.032-.944c.555 0 .976-.037 1.264-.112.299-.085.512-.235.64-.448.128-.213.192-.539.192-.976v-3.04c0-.437-.064-.763-.192-.976-.128-.224-.341-.368-.64-.432-.288-.075-.714-.112-1.28-.112-.522 0-.928.043-1.216.128-.288.085-.496.24-.624.464-.128.213-.192.523-.192.928v3.04c0 .437.059.763.176.976.128.213.336.363.624.448.288.075.704.112 1.248.112Zm8.546.944c-.768 0-1.371-.075-1.808-.224-.437-.16-.757-.416-.96-.768-.192-.352-.288-.843-.288-1.472v-3.408c0-.779.24-1.339.72-1.68.491-.341 1.296-.512 2.416-.512.672 0 1.248.085 1.728.256.491.17.741.416.752.736h.032l-.032-1.968V28.8h1.44V40h-1.408v-.912c0 .288-.229.533-.688.736-.459.224-1.093.336-1.904.336Zm.304-.992c.8 0 1.376-.09 1.728-.272.352-.181.528-.49.528-.928v-3.824c0-.693-.709-1.04-2.128-1.04-.853 0-1.408.064-1.664.192-.267.128-.4.41-.4.848v3.824c0 .437.144.747.432.928.299.181.8.272 1.504.272Zm9.333.992c-2.368 0-3.552-.79-3.552-2.368v-3.056c0-.939.266-1.61.8-2.016.544-.416 1.418-.624 2.624-.624 1.141 0 1.962.197 2.464.592.512.395.768 1.077.768 2.048v1.712h-5.2v1.168c0 .533.186.917.56 1.152.373.235.949.352 1.728.352.736 0 1.605-.128 2.608-.384v1.104c-.982.213-1.915.32-2.8.32Zm1.664-4.656v-1.216c0-.47-.144-.79-.432-.96-.278-.181-.758-.272-1.44-.272-.662 0-1.142.09-1.44.272-.299.17-.448.49-.448.96v1.216h3.76Zm6.002 4.656a19.95 19.95 0 0 1-2.656-.192v-1.104c1.248.203 2.144.304 2.688.304.683 0 1.173-.064 1.472-.192.299-.139.448-.39.448-.752v-.784c0-.33-.112-.565-.336-.704-.224-.139-.587-.208-1.088-.208h-.88c-.8 0-1.413-.165-1.84-.496-.416-.33-.624-.795-.624-1.392v-.72c0-1.216 1.152-1.824 3.456-1.824.171 0 .955.043 2.352.128v1.04c-.949-.15-1.755-.224-2.416-.224-.757 0-1.275.075-1.552.224-.277.15-.416.4-.416.752v.656c0 .523.475.784 1.424.784h.896c1.632 0 2.448.608 2.448 1.824v.672c0 .8-.277 1.37-.832 1.712-.555.33-1.403.496-2.544.496Zm5.367-10.704h1.44v1.504h-1.44v-1.504Zm0 2.8h1.44V40h-1.44v-7.744Zm6.865 11.264c-1.056 0-1.947-.059-2.672-.176V42.32c1.28.15 2.213.224 2.8.224.736 0 1.269-.117 1.6-.352.341-.235.512-.624.512-1.168v-1.856c-.021.341-.256.592-.704.752-.437.16-.992.24-1.664.24-.8 0-1.424-.075-1.872-.224-.437-.15-.752-.395-.944-.736-.181-.341-.272-.805-.272-1.392v-3.152c0-.917.245-1.573.736-1.968.501-.395 1.317-.592 2.448-.592 1.344 0 2.133.304 2.368.912v-.752h1.344v8.48c0 .715-.133 1.275-.4 1.68s-.667.688-1.2.848c-.533.17-1.227.256-2.08.256Zm.176-4.32c.757 0 1.291-.09 1.6-.272.309-.181.464-.523.464-1.024V34.4c0-.352-.059-.619-.176-.8-.107-.181-.309-.31-.608-.384-.299-.085-.736-.128-1.312-.128-.544 0-.955.037-1.232.112-.267.075-.453.208-.56.4-.096.181-.144.448-.144.8v3.504c0 .363.053.635.16.816.107.181.299.31.576.384.277.064.688.096 1.232.096Zm6.005-6.944h1.44v.944c.15-.736.998-1.104 2.544-1.104.992 0 1.686.181 2.08.544.406.352.608.912.608 1.68V40h-1.44v-5.6c0-.203-.016-.368-.048-.496a1.081 1.081 0 0 0-.192-.384c-.213-.267-.688-.4-1.424-.4-.565 0-1.002.043-1.312.128-.298.075-.512.203-.64.384-.117.181-.176.437-.176.768V40h-1.44v-7.744Z" fill="#697095"/></svg>