<svg width="302" height="1080" viewBox="0 0 302 1080" fill="none" xmlns="http://www.w3.org/2000/svg">
<g clip-path="url(#clip0_1005_2085)">
<g opacity="0.8">
<path opacity="0.6" d="M300 313L155 458M155 458V313M155 458H300M300 925L155 780M155 780V925M155 780H300M0 614.001L145 469.001M145 469.001H0M145 469.001V614.001" stroke="#697095" stroke-width="3"/>
<path opacity="0.25" d="M299 468C298.999 496.876 290.436 525.103 274.393 549.112C258.351 573.122 235.549 591.835 208.872 602.886C191.159 610.224 172.173 614 153 614V468H299Z" fill="#F70000"/>
<path opacity="0.6" d="M154 1L299 146M299 146V1M299 146H154" stroke="#697095" stroke-width="3"/>
<path opacity="0.25" d="M146 146C107.278 146 70.143 130.618 42.7627 103.237C15.3825 75.857 0.000265213 38.7215 0 0L146 0V146Z" fill="#F70000"/>
<path opacity="0.25" d="M146 156C145.999 194.721 130.617 231.857 103.238 259.238C75.8571 286.618 38.7215 301.999 0 302L0 156H146ZM300 302C280.827 302.001 261.841 298.225 244.127 290.889C226.413 283.552 210.318 272.797 196.76 259.24C183.203 245.682 172.448 229.587 165.111 211.873C157.775 194.159 153.999 175.173 154 156H300V302Z" fill="#133996"/>
<path opacity="0.25" d="M0 312C28.8761 312 57.1036 320.563 81.1132 336.606C105.123 352.648 123.836 375.45 134.887 402.128C142.224 419.842 146 438.827 146 458H0V312Z" fill="#F70000"/>
<path opacity="0.25" d="M154 934C192.721 934.001 229.857 949.383 257.238 976.762C270.796 990.319 281.55 1006.41 288.887 1024.13C296.224 1041.84 300.001 1060.83 300 1080H154V934ZM146 925C107.278 925 70.143 909.618 42.7627 882.237C15.3825 854.857 0.000265213 817.722 0 779H146V925Z" fill="#133996"/>
<path opacity="0.25" d="M0 771C0.00053042 732.279 15.3828 695.143 42.763 667.763C70.1432 640.383 107.279 625.001 146 625V771H0ZM0 1080C0 1060.83 3.776 1041.84 11.114 1024.13C22.1641 997.452 40.8771 974.649 64.8866 958.606C88.8961 942.563 117.124 934 146 934V1080H0Z" fill="#F70000"/>
</g>
</g>
<defs>
<clipPath id="clip0_1005_2085">
<rect width="302" height="1080" fill="white"/>
</clipPath>
</defs>
</svg>
