<svg width="302" height="1080" fill="none" xmlns="http://www.w3.org/2000/svg"><g clip-path="url(#a)"><path fill="#fff" d="M0 0h1920v1080H0z"/><g opacity=".8"><path opacity=".6" d="M300 313 155 458m0 0V313m0 145h145m0 467L155 780m0 0v145m0-145h145M0 614.001l145-145m0 0H0m145 0v145" stroke="#697095" stroke-width="3"/><path opacity=".25" d="M299 468a146.007 146.007 0 0 1-90.128 134.886A145.988 145.988 0 0 1 153 614V468h146Z" fill="#F70000"/><path opacity=".6" d="m154 1 145 145m0 0V1m0 145H154" stroke="#697095" stroke-width="3"/><path opacity=".25" d="M146 146A146.001 146.001 0 0 1 0 0h146v146Z" fill="#F70000"/><path opacity=".25" d="M146 156a146.014 146.014 0 0 1-42.762 103.238A146.007 146.007 0 0 1 0 302V156h146Zm154 146a145.992 145.992 0 0 1-146-146h146v146Z" fill="#133996"/><path opacity=".25" d="M0 312a146.003 146.003 0 0 1 134.887 90.128A146.006 146.006 0 0 1 146 458H0V312Z" fill="#F70000"/><path opacity=".25" d="M154 934a146.014 146.014 0 0 1 103.238 42.762A145.992 145.992 0 0 1 300 1080H154V934Zm-8-9A146.001 146.001 0 0 1 0 779h146v146Z" fill="#133996"/><path opacity=".25" d="M0 771a146.002 146.002 0 0 1 146-146v146H0Zm0 309c0-19.17 3.776-38.16 11.114-55.87A146 146 0 0 1 146 934v146H0Z" fill="#F70000"/></g></g><defs><clipPath id="a"><path fill="#fff" d="M0 0h1920v1080H0z"/></clipPath></defs></svg>