<svg width="304" height="1080" viewBox="0 0 304 1080" fill="none" xmlns="http://www.w3.org/2000/svg">
<g opacity="0.8">
<path opacity="0.6" d="M2 923L147 778M147 778V923M147 778H2M304 612L159 467M159 467V612M159 467H304M3 310L148 455M148 455V310M148 455H3M148 1L3 146M3 146H148M3 146V1" stroke="#697095" stroke-width="3"/>
<path opacity="0.25" d="M2 934H148V1080H2V934ZM4 466H150V612H4V466ZM158 0H304V146H158V0Z" fill="#133996"/>
<path opacity="0.25" d="M158 934H304V1080H158V934ZM158 622H304V768H158V622ZM158 154H304V300H158V154ZM2 154H148V300H2V154Z" fill="#F70000"/>
<path opacity="0.25" d="M158 778H304V924H158V778Z" fill="#133996"/>
</g>
</svg>
