<svg width="304" height="1080" fill="none" xmlns="http://www.w3.org/2000/svg"><g opacity=".8"><path opacity=".6" d="m2 923 145-145m0 0v145m0-145H2m302-166L159 467m0 0v145m0-145h145M3 310l145 145m0 0V310m0 145H3M148 1 3 146m0 0h145M3 146V1" stroke="#697095" stroke-width="3"/><path opacity=".25" fill="#133996" d="M2 934h146v146H2zm2-468h146v146H4zM158 0h146v146H158z"/><path opacity=".25" fill="#F70000" d="M158 934h146v146H158zm0-312h146v146H158zm0-468h146v146H158zM2 154h146v146H2z"/><path opacity=".25" fill="#133996" d="M158 778h146v146H158z"/></g></svg>